<svg width="35" height="42" viewBox="0 0 35 42" fill="none" xmlns="http://www.w3.org/2000/svg">
<path d="M10.3323 41.6745C8.38369 41.6745 6.6599 41.2998 5.16096 40.5503C3.66201 39.7634 2.50033 38.7141 1.67591 37.4025C0.851488 36.0535 0.439278 34.5358 0.439278 32.8495C0.439278 31.463 0.645383 30.2451 1.05759 29.1958C1.50728 28.1091 1.99443 27.2284 2.51907 26.5539C3.0437 25.8419 3.7557 25.0175 4.65506 24.0807L8.14011 20.5394L7.12832 19.4152C5.70432 17.8038 4.59885 16.3423 3.81191 15.0308C3.06243 13.7192 2.6877 12.1828 2.6877 10.4215C2.6877 8.7352 3.08117 7.18004 3.86812 5.75604C4.65506 4.29457 5.79801 3.13289 7.29695 2.27099C8.7959 1.4091 10.5759 0.978154 12.6369 0.978154C14.5856 0.978154 16.2719 1.39036 17.6959 2.21478C19.1574 3.0392 20.2628 4.12594 21.0123 5.47499C21.7618 6.78657 22.1365 8.21057 22.1365 9.74698C22.1365 11.5082 21.7618 13.0259 21.0123 14.3C20.3003 15.5741 19.3822 16.7733 18.258 17.8975L15.7285 20.5394L21.4058 26.835L27.1392 20.2583H33.8845L25.5654 30.2638V31.5004L34.0531 41H26.6896L21.462 35.2665L20.5064 36.3345C19.0075 38.0583 17.4898 39.3886 15.9534 40.3255C14.4544 41.2248 12.5807 41.6745 10.3323 41.6745ZM13.8174 14.7497C13.8923 14.6373 14.1546 14.3562 14.6043 13.9066C15.0915 13.4569 15.4849 12.9135 15.7847 12.2765C16.122 11.6394 16.2906 10.9836 16.2906 10.3091C16.2906 9.14741 15.9159 8.26678 15.1664 7.6672C14.4169 7.03015 13.5176 6.71162 12.4683 6.71162C11.3441 6.71162 10.4073 7.06762 9.65779 7.77962C8.94579 8.45414 8.5898 9.35351 8.5898 10.4777C8.5898 11.3396 8.7959 12.164 9.20811 12.951C9.65779 13.7005 10.2761 14.4874 11.0631 15.3118L12.1311 16.436L13.8174 14.7497ZM11.0631 35.4352C12.0374 35.4352 12.9367 35.1916 13.7612 34.7044C14.6231 34.1798 15.5224 33.4116 16.4593 32.3998L17.6397 31.107L11.9062 24.8114L9.1519 27.6219C8.51485 28.2964 8.00895 28.9335 7.63422 29.5331C7.29695 30.1326 7.12832 30.8821 7.12832 31.7815C7.12832 32.9057 7.48432 33.8051 8.19632 34.4796C8.94579 35.1166 9.90137 35.4352 11.0631 35.4352Z" fill="#1D1D1B"/>
</svg>
