<svg width="25" height="25" viewBox="0 0 25 25" fill="none" xmlns="http://www.w3.org/2000/svg">
<path d="M17.5 2.18555H7.5C4.73858 2.18555 2.5 4.42412 2.5 7.18555V17.1855C2.5 19.947 4.73858 22.1855 7.5 22.1855H17.5C20.2614 22.1855 22.5 19.947 22.5 17.1855V7.18555C22.5 4.42412 20.2614 2.18555 17.5 2.18555Z" stroke="#00A88E" stroke-width="2" stroke-linecap="round" stroke-linejoin="round"/>
<path d="M16.5002 11.5555C16.6236 12.3878 16.4815 13.2378 16.094 13.9846C15.7065 14.7314 15.0933 15.337 14.3418 15.7152C13.5903 16.0935 12.7386 16.2251 11.908 16.0915C11.0773 15.9578 10.31 15.5656 9.71503 14.9707C9.12011 14.3758 8.72793 13.6084 8.59426 12.7778C8.4606 11.9471 8.59226 11.0954 8.97052 10.3439C9.34878 9.5924 9.95438 8.97928 10.7012 8.59178C11.448 8.20429 12.2979 8.06213 13.1302 8.18554C13.9791 8.31143 14.765 8.70701 15.3719 9.31385C15.9787 9.92069 16.3743 10.7066 16.5002 11.5555Z" stroke="#00A88E" stroke-width="2" stroke-linecap="round" stroke-linejoin="round"/>
<path d="M18 6.68555H18.01" stroke="#00A88E" stroke-width="2" stroke-linecap="round" stroke-linejoin="round"/>
</svg>
