<svg width="292" height="57" viewBox="0 0 292 57" fill="none" xmlns="http://www.w3.org/2000/svg">
<path d="M131.606 29.0131C131.606 40.1123 124.876 45.3595 116.452 45.3595H111.304V38.6996H116.051C121.132 38.6996 124.519 35.942 124.519 29.0131C124.519 22.1514 121.316 18.7681 115.9 18.7681C110.686 18.7681 106.958 21.9496 106.958 28.8785V56.7288H99.9385V12.9347H106.958V16.7024H107.961C110.301 13.5407 113.761 12.1274 117.371 12.1274C125.127 12.1274 131.606 17.7783 131.606 29.0131ZM85.47 26.1199L80.7898 25.6489C77.1128 25.3127 75.1738 24.3036 75.1738 22.1509C75.1738 19.5946 77.6477 18.1147 81.191 18.1147C84.8683 18.1147 87.2081 19.8636 87.4086 22.3527H94.1613C93.8939 16.0293 89.0135 12.1274 81.258 12.1274C73.4358 12.1274 68.1539 16.2983 68.1539 22.42C68.1539 27.5327 71.363 30.8289 78.6506 31.5689L83.3972 32.0398C86.2723 32.3087 88.2112 32.9142 88.2112 35.6724C88.2112 38.1616 86.4058 39.9777 81.6591 39.9777C77.288 39.9777 75.1342 37.9819 74.3784 35.3067H67.0731C67.801 41.4219 72.9065 46.1667 81.6591 46.1667C89.8825 46.1667 95.2309 41.794 95.2309 35.3362C95.2309 29.618 91.4871 26.7254 85.47 26.1199ZM158.794 35.3067C157.693 37.8516 155.062 39.7761 151.328 39.7761C146.18 39.7761 142.369 36.4125 142.369 29.1472C142.369 22.2182 145.912 18.3837 151.394 18.3837C156.275 18.3837 159.083 21.3437 159.351 25.7835H146.714V30.8966H166.237V27.5327C166.237 18.1819 160.086 12.1274 151.328 12.1274C143.171 12.1274 135.349 17.711 135.349 29.1472C135.349 40.5831 143.171 46.1667 151.328 46.1667C158.788 46.1667 164.108 41.5428 165.761 35.3067H158.794ZM48.1305 12.1274C40.4421 12.1274 34.6923 16.1643 34.0238 22.3527H41.5784C42.1134 20.066 44.1858 18.3842 48.1305 18.3842C53.2118 18.3842 54.8831 21.0755 54.8831 24.3713V35.4706C52.0084 38.7673 48.6654 40.3141 45.3225 40.3141C41.846 40.3141 39.4392 38.6324 39.4392 35.6058C39.4392 32.7124 41.3111 30.8966 44.9214 30.8966H50.5373V25.7835H44.7688C36.698 25.7835 32.2187 29.8204 32.2187 36.0088C32.2187 41.794 36.5642 46.1667 43.7179 46.1667C47.7294 46.1667 51.2729 44.5528 53.8803 42.6012H54.8831V45.3595H61.9031V23.6982C61.9031 15.6929 56.4877 12.1274 48.1305 12.1274ZM0.5 45.3595H7.52002V0.960449H0.5V45.3595ZM29.9839 12.9347H21.4262L11.1971 26.4567V30.6948L21.6936 45.3595H30.385L18.0834 28.5417L29.9839 12.9347ZM283.757 12.9347L278.007 25.7835C276.603 28.8785 275.267 31.9051 274.866 33.9238H273.862C273.461 31.9051 272.057 28.9454 270.653 25.8513L264.904 12.9347H257.148L270.653 42.0633L263.967 56.7288H271.456L291.513 12.9347H283.757ZM255.595 12.9347H247.038L236.809 26.4567V30.6948L247.305 45.3595H255.997L243.695 28.5417L255.595 12.9347ZM211.643 26.1199L206.963 25.6489C203.286 25.3127 201.347 24.3036 201.347 22.1509C201.347 19.5946 203.821 18.1147 207.364 18.1147C211.041 18.1147 213.381 19.8636 213.582 22.3527H220.334C220.067 16.0293 215.186 12.1274 207.431 12.1274C199.609 12.1274 194.327 16.2983 194.327 22.42C194.327 27.5327 197.536 30.8289 204.823 31.5689L209.57 32.0398C212.445 32.3087 214.384 32.9142 214.384 35.6724C214.384 38.1616 212.579 39.9777 207.832 39.9777C203.461 39.9777 201.307 37.9819 200.551 35.3067H193.246C193.974 41.4219 199.079 46.1667 207.832 46.1667C216.055 46.1667 221.404 41.794 221.404 35.3362C221.404 29.618 217.66 26.7254 211.643 26.1199ZM226.111 45.3595H233.131V0.960449H226.111V45.3595ZM179.82 16.7024H178.817V12.9347H171.797V45.3595H178.817V28.4071C178.817 22.6218 181.474 19.2582 186.706 19.2582H191.15V12.1274H188.578C183.723 12.1274 181.66 13.9699 179.82 16.7024Z" fill="#00A88E"/>
</svg>
