<svg width="37" height="36" viewBox="0 0 37 36" fill="none" xmlns="http://www.w3.org/2000/svg">
<path fill-rule="evenodd" clip-rule="evenodd" d="M8.75977 15.3999C8.75977 11.4828 12.0309 8.28516 16.0381 8.28516C20.0464 8.28516 23.3164 11.484 23.3164 15.4092C23.3164 15.7377 23.2842 16.0577 23.2431 16.3533L29.4162 22.3878V28.4867H23.2504V26.2472H20.9594V24.0077H18.6684V22.0344C17.8585 22.3352 16.9521 22.5147 16.0381 22.5147C12.0309 22.5147 8.75977 19.3171 8.75977 15.3999ZM25.6073 26.1827H27.0592V23.3421L20.7266 17.1518L20.824 16.5691C20.9026 16.0981 20.9594 15.7505 20.9594 15.4092C20.9594 12.7541 18.7423 10.5892 16.0381 10.5892C13.3326 10.5892 11.1167 12.7553 11.1167 15.3999C11.1167 18.0446 13.3326 20.2107 16.0381 20.2107C16.8943 20.2107 17.7652 19.97 18.4395 19.6071L18.7049 19.4642H21.0254V21.7037H23.3164V23.9432H25.6073V26.1827Z" fill="#00A88E"/>
<path d="M12.9941 13.9071C12.9941 14.7273 13.6729 15.4001 14.5215 15.4001C15.3605 15.4001 16.0488 14.7365 16.0488 13.9071C16.0488 13.0868 15.37 12.4141 14.5215 12.4141C13.6729 12.4141 12.9941 13.0868 12.9941 13.9071Z" fill="#00A88E"/>
<path fill-rule="evenodd" clip-rule="evenodd" d="M18.5425 2.56964C9.81262 2.56964 2.73196 9.49122 2.73196 18.025C2.73196 26.5587 9.81262 33.4803 18.5425 33.4803C27.2723 33.4803 34.353 26.5587 34.353 18.025C34.353 9.49122 27.2723 2.56964 18.5425 2.56964ZM0.375 18.025C0.375 8.21875 8.51091 0.265625 18.5425 0.265625C28.5741 0.265625 36.71 8.21875 36.71 18.025C36.71 27.8312 28.5741 35.7843 18.5425 35.7843C8.51091 35.7843 0.375 27.8312 0.375 18.025Z" fill="#1D1D1B"/>
</svg>
