<svg width="37" height="37" viewBox="0 0 37 37" fill="none" xmlns="http://www.w3.org/2000/svg">
<path fill-rule="evenodd" clip-rule="evenodd" d="M8.57129 16.522H36.6124L36.6184 17.6364L35.4841 17.6423C36.6184 17.6364 36.6184 17.6362 36.6184 17.6364L36.6326 20.3254C36.6411 21.9451 36.6525 24.1152 36.6639 26.3168C36.6867 30.7168 36.7095 35.2505 36.7095 35.7575V36.8778H8.57129V17.643C8.57129 17.6429 8.57129 17.6423 9.70556 17.6423L8.57129 17.643V16.522ZM10.8398 18.763V34.637L34.4368 34.6372C34.4292 32.93 34.4123 29.5967 34.3954 26.3282C34.384 24.1268 34.3726 21.9567 34.3641 20.3371L34.3558 18.7626L10.8398 18.763Z" fill="#1D1D1B"/>
<path d="M35.4846 21.4849H9.70605V24.687H35.4846V21.4849Z" fill="#1D1D1B"/>
<path d="M15.8994 26.8828H13.2578V29.5361H15.8994V26.8828Z" fill="#00A88E"/>
<path d="M21.2754 26.8828H18.6338V29.5361H21.2754V26.8828Z" fill="#00A88E"/>
<path d="M26.6499 26.8828H24.0083V29.5361H26.6499V26.8828Z" fill="#00A88E"/>
<path d="M31.9317 26.8828H29.29V29.5361H31.9317V26.8828Z" fill="#00A88E"/>
<path fill-rule="evenodd" clip-rule="evenodd" d="M0.375 0.87793H28.4221V1.99823H27.2878C28.4221 1.99823 28.4221 1.99814 28.4221 1.99823V14.4167H26.1536V3.11853H2.64354V18.9932H6.25619V21.2338H0.375V1.99857V0.87793Z" fill="#1D1D1B"/>
<path d="M27.2864 5.83984H1.50781V9.04203H27.2864V5.83984Z" fill="#1D1D1B"/>
<path fill-rule="evenodd" clip-rule="evenodd" d="M15.7195 13.8226H5.42627V11.582H15.7195V13.8226Z" fill="#00A88E"/>
</svg>
