<svg width="785" height="889" viewBox="0 0 785 889" fill="none" xmlns="http://www.w3.org/2000/svg">
<path d="M783.933 629.096C786.27 666.392 766.311 701.534 733.083 718.631L428.187 875.508C394.403 892.891 354.301 892.88 320.525 875.479L83.2898 753.252C55.3418 738.853 33.0026 715.533 19.8167 686.993L-82.1838 466.221C-101.023 425.447 -90.8997 377.06 -57.0546 347.53L307.809 28.695C342.498 -1.5711 391.785 -8.18704 433.728 10.7928L689.815 126.676C729.475 144.623 755.976 183.011 758.699 226.457L783.933 629.096Z" fill="#00A88E" fill-opacity="0.2"/>
<path d="M783.933 629.096C786.27 666.392 766.311 701.534 733.083 718.631L428.187 875.508C394.403 892.891 354.301 892.88 320.525 875.479L83.2898 753.252C55.3418 738.853 33.0026 715.533 19.8167 686.993L-82.1838 466.221C-101.023 425.447 -90.8997 377.06 -57.0546 347.53L307.809 28.695C342.498 -1.5711 391.785 -8.18704 433.728 10.7928L689.815 126.676C729.475 144.623 755.976 183.011 758.699 226.457L783.933 629.096Z" fill="url(#paint0_linear)"/>
<path d="M783.933 629.096C786.27 666.392 766.311 701.534 733.083 718.631L428.187 875.508C394.403 892.891 354.301 892.88 320.525 875.479L83.2898 753.252C55.3418 738.853 33.0026 715.533 19.8167 686.993L-82.1838 466.221C-101.023 425.447 -90.8997 377.06 -57.0546 347.53L307.809 28.695C342.498 -1.5711 391.785 -8.18704 433.728 10.7928L689.815 126.676C729.475 144.623 755.976 183.011 758.699 226.457L783.933 629.096Z" fill="url(#paint1_linear)"/>
<defs>
<linearGradient id="paint0_linear" x1="807.151" y1="570.522" x2="-115.669" y2="298.215" gradientUnits="userSpaceOnUse">
<stop stop-color="white"/>
<stop offset="1" stop-color="white" stop-opacity="0"/>
</linearGradient>
<linearGradient id="paint1_linear" x1="807.151" y1="570.522" x2="-115.669" y2="298.215" gradientUnits="userSpaceOnUse">
<stop stop-color="white"/>
<stop offset="1" stop-color="white" stop-opacity="0"/>
</linearGradient>
</defs>
</svg>
