<svg width="188" height="51" viewBox="0 0 188 51" fill="none" xmlns="http://www.w3.org/2000/svg">
<path d="M95.5377 48.1258C94.7446 49.1028 93.2571 49.1132 92.4503 48.1476L84.9397 39.1591C83.8559 37.862 84.7701 35.8887 86.4604 35.8767L101.354 35.7717C103.044 35.7597 103.986 37.72 102.921 39.0322L95.5377 48.1258Z" fill="#DAA520"/>
<rect x="0.5" width="187" height="39" fill="#DAA520"/>
<path d="M27.8953 11H33.5953C34.542 11 35.3553 11.18 36.0353 11.54C36.7286 11.9 37.2553 12.4 37.6153 13.04C37.9753 13.6667 38.1553 14.38 38.1553 15.18C38.1553 16.34 37.802 17.2867 37.0953 18.02C36.3886 18.7533 35.4086 19.1667 34.1553 19.26H33.2953V19.58L38.0753 25H35.3153L30.4753 19.38H30.1553V25H27.8953V11ZM33.4353 17.38C34.222 17.38 34.822 17.18 35.2353 16.78C35.6486 16.3667 35.8553 15.8333 35.8553 15.18C35.8553 14.5267 35.6486 14 35.2353 13.6C34.822 13.1867 34.222 12.98 33.4353 12.98H30.1553V17.38H33.4353ZM44.2298 25.24C43.2698 25.24 42.4165 25.0267 41.6698 24.6C40.9365 24.16 40.3698 23.56 39.9698 22.8C39.5698 22.0267 39.3698 21.16 39.3698 20.2C39.3698 19.24 39.5698 18.3733 39.9698 17.6C40.3698 16.8267 40.9365 16.22 41.6698 15.78C42.4032 15.34 43.2498 15.12 44.2098 15.12C45.1165 15.12 45.9165 15.3133 46.6098 15.7C47.3165 16.0867 47.8632 16.6267 48.2498 17.32C48.6365 18 48.8298 18.7733 48.8298 19.64V20.78H41.5898C41.6832 21.58 41.9632 22.1933 42.4298 22.62C42.8965 23.0333 43.4898 23.24 44.2098 23.24C44.7832 23.24 45.2565 23.12 45.6298 22.88C46.0032 22.6267 46.2698 22.2933 46.4298 21.88H48.6498C48.3832 22.8933 47.8632 23.7067 47.0898 24.32C46.3165 24.9333 45.3632 25.24 44.2298 25.24ZM46.6698 19.14C46.6432 18.5267 46.4098 18.02 45.9698 17.62C45.5432 17.2067 44.9632 17 44.2298 17C43.5765 17 43.0165 17.1867 42.5498 17.56C42.0965 17.9333 41.7965 18.46 41.6498 19.14H46.6698ZM55.2255 25.24C54.2788 25.24 53.4388 25.0267 52.7055 24.6C51.9721 24.16 51.3988 23.5533 50.9855 22.78C50.5855 22.0067 50.3855 21.14 50.3855 20.18C50.3855 19.22 50.5855 18.3533 50.9855 17.58C51.3988 16.8067 51.9721 16.2067 52.7055 15.78C53.4388 15.34 54.2788 15.12 55.2255 15.12C56.3855 15.12 57.3721 15.4467 58.1855 16.1C58.9988 16.7533 59.4921 17.62 59.6655 18.7H57.4655C57.3188 18.1933 57.0521 17.8067 56.6655 17.54C56.2921 17.26 55.8121 17.12 55.2255 17.12C54.4388 17.12 53.7921 17.3933 53.2855 17.94C52.7921 18.4733 52.5455 19.22 52.5455 20.18C52.5455 21.1533 52.7988 21.9067 53.3055 22.44C53.8121 22.9733 54.4455 23.24 55.2055 23.24C55.8055 23.24 56.2921 23.1067 56.6655 22.84C57.0521 22.56 57.3188 22.1667 57.4655 21.66H59.6655C59.4921 22.74 58.9988 23.6067 58.1855 24.26C57.3721 24.9133 56.3855 25.24 55.2255 25.24ZM66.2248 25.24C65.2382 25.24 64.3648 25.0133 63.6048 24.56C62.8582 24.1067 62.2782 23.5 61.8648 22.74C61.4515 21.9667 61.2448 21.1133 61.2448 20.18C61.2448 19.2467 61.4515 18.4 61.8648 17.64C62.2782 16.8667 62.8582 16.2533 63.6048 15.8C64.3648 15.3467 65.2382 15.12 66.2248 15.12C67.2115 15.12 68.0848 15.3467 68.8448 15.8C69.6048 16.2533 70.1915 16.8667 70.6048 17.64C71.0182 18.4 71.2248 19.2467 71.2248 20.18C71.2248 21.1133 71.0182 21.9667 70.6048 22.74C70.1915 23.5 69.6048 24.1067 68.8448 24.56C68.0848 25.0133 67.2115 25.24 66.2248 25.24ZM66.2248 23.16C66.9982 23.16 67.6515 22.8933 68.1848 22.36C68.7182 21.8133 68.9848 21.0867 68.9848 20.18C68.9848 19.2733 68.7182 18.5533 68.1848 18.02C67.6515 17.4733 66.9982 17.2 66.2248 17.2C65.4515 17.2 64.7982 17.4733 64.2648 18.02C63.7315 18.5533 63.4648 19.2733 63.4648 20.18C63.4648 21.0867 63.7315 21.8133 64.2648 22.36C64.7982 22.8933 65.4515 23.16 66.2248 23.16ZM73.0478 15.36H75.2678V16.5H75.5878C75.8145 16.1133 76.1478 15.7867 76.5878 15.52C77.0411 15.2533 77.5745 15.12 78.1878 15.12C78.7478 15.12 79.2611 15.2467 79.7278 15.5C80.1945 15.74 80.5611 16.0933 80.8278 16.56H81.1478C81.3745 16.16 81.7478 15.82 82.2678 15.54C82.8011 15.26 83.4145 15.12 84.1078 15.12C85.0678 15.12 85.8611 15.4333 86.4878 16.06C87.1278 16.6867 87.4478 17.6133 87.4478 18.84V25H85.2278V19.28C85.2278 18.64 85.0678 18.1533 84.7478 17.82C84.4278 17.4867 83.9945 17.32 83.4478 17.32C82.7945 17.32 82.2811 17.5533 81.9078 18.02C81.5478 18.4733 81.3678 19.0733 81.3678 19.82V25H79.1478V19.28C79.1478 18.64 78.9878 18.1533 78.6678 17.82C78.3478 17.4867 77.9145 17.32 77.3678 17.32C76.7011 17.32 76.1811 17.5533 75.8078 18.02C75.4478 18.4733 75.2678 19.0733 75.2678 19.82V25H73.0478V15.36ZM89.4736 15.36H91.6936V16.5H92.0136C92.2403 16.1133 92.5736 15.7867 93.0136 15.52C93.4669 15.2533 94.0003 15.12 94.6136 15.12C95.1736 15.12 95.6869 15.2467 96.1536 15.5C96.6203 15.74 96.9869 16.0933 97.2536 16.56H97.5736C97.8003 16.16 98.1736 15.82 98.6936 15.54C99.2269 15.26 99.8403 15.12 100.534 15.12C101.494 15.12 102.287 15.4333 102.914 16.06C103.554 16.6867 103.874 17.6133 103.874 18.84V25H101.654V19.28C101.654 18.64 101.494 18.1533 101.174 17.82C100.854 17.4867 100.42 17.32 99.8736 17.32C99.2203 17.32 98.7069 17.5533 98.3336 18.02C97.9736 18.4733 97.7936 19.0733 97.7936 19.82V25H95.5736V19.28C95.5736 18.64 95.4136 18.1533 95.0936 17.82C94.7736 17.4867 94.3403 17.32 93.7936 17.32C93.1269 17.32 92.6069 17.5533 92.2336 18.02C91.8736 18.4733 91.6936 19.0733 91.6936 19.82V25H89.4736V15.36ZM110.499 25.24C109.539 25.24 108.686 25.0267 107.939 24.6C107.206 24.16 106.639 23.56 106.239 22.8C105.839 22.0267 105.639 21.16 105.639 20.2C105.639 19.24 105.839 18.3733 106.239 17.6C106.639 16.8267 107.206 16.22 107.939 15.78C108.673 15.34 109.519 15.12 110.479 15.12C111.386 15.12 112.186 15.3133 112.879 15.7C113.586 16.0867 114.133 16.6267 114.519 17.32C114.906 18 115.099 18.7733 115.099 19.64V20.78H107.859C107.953 21.58 108.233 22.1933 108.699 22.62C109.166 23.0333 109.759 23.24 110.479 23.24C111.053 23.24 111.526 23.12 111.899 22.88C112.273 22.6267 112.539 22.2933 112.699 21.88H114.919C114.653 22.8933 114.133 23.7067 113.359 24.32C112.586 24.9333 111.633 25.24 110.499 25.24ZM112.939 19.14C112.913 18.5267 112.679 18.02 112.239 17.62C111.813 17.2067 111.233 17 110.499 17C109.846 17 109.286 17.1867 108.819 17.56C108.366 17.9333 108.066 18.46 107.919 19.14H112.939ZM116.915 15.36H119.135V16.5H119.455C119.682 16.1133 120.042 15.7867 120.535 15.52C121.028 15.2533 121.622 15.12 122.315 15.12C123.328 15.12 124.175 15.4267 124.855 16.04C125.535 16.64 125.875 17.5667 125.875 18.82V25H123.655V19.52C123.655 18.7867 123.455 18.24 123.055 17.88C122.668 17.5067 122.162 17.32 121.535 17.32C120.775 17.32 120.182 17.56 119.755 18.04C119.342 18.52 119.135 19.1733 119.135 20V25H116.915V15.36ZM131.972 25.24C131.212 25.24 130.498 25.0533 129.832 24.68C129.178 24.2933 128.645 23.7267 128.232 22.98C127.832 22.22 127.632 21.3067 127.632 20.24C127.632 19.1333 127.845 18.1933 128.272 17.42C128.698 16.6467 129.252 16.0733 129.932 15.7C130.625 15.3133 131.358 15.12 132.132 15.12C132.718 15.12 133.285 15.2333 133.832 15.46C134.392 15.6867 134.865 16.04 135.252 16.52V10.6H137.472V25H135.252V23.74H134.952C134.632 24.2467 134.205 24.6267 133.672 24.88C133.152 25.12 132.585 25.24 131.972 25.24ZM132.572 23.16C133.318 23.16 133.952 22.9067 134.472 22.4C134.992 21.8933 135.252 21.1533 135.252 20.18C135.252 19.2067 134.992 18.4667 134.472 17.96C133.952 17.4533 133.318 17.2 132.572 17.2C131.825 17.2 131.185 17.4533 130.652 17.96C130.132 18.4533 129.872 19.1933 129.872 20.18C129.872 21.1667 130.132 21.9133 130.652 22.42C131.185 22.9133 131.825 23.16 132.572 23.16ZM144.21 25.24C143.25 25.24 142.397 25.0267 141.65 24.6C140.917 24.16 140.35 23.56 139.95 22.8C139.55 22.0267 139.35 21.16 139.35 20.2C139.35 19.24 139.55 18.3733 139.95 17.6C140.35 16.8267 140.917 16.22 141.65 15.78C142.384 15.34 143.23 15.12 144.19 15.12C145.097 15.12 145.897 15.3133 146.59 15.7C147.297 16.0867 147.844 16.6267 148.23 17.32C148.617 18 148.81 18.7733 148.81 19.64V20.78H141.57C141.664 21.58 141.944 22.1933 142.41 22.62C142.877 23.0333 143.47 23.24 144.19 23.24C144.764 23.24 145.237 23.12 145.61 22.88C145.984 22.6267 146.25 22.2933 146.41 21.88H148.63C148.364 22.8933 147.844 23.7067 147.07 24.32C146.297 24.9333 145.344 25.24 144.21 25.24ZM146.65 19.14C146.624 18.5267 146.39 18.02 145.95 17.62C145.524 17.2067 144.944 17 144.21 17C143.557 17 142.997 17.1867 142.53 17.56C142.077 17.9333 141.777 18.46 141.63 19.14H146.65ZM154.706 25.24C153.946 25.24 153.233 25.0533 152.566 24.68C151.913 24.2933 151.379 23.7267 150.966 22.98C150.566 22.22 150.366 21.3067 150.366 20.24C150.366 19.1333 150.579 18.1933 151.006 17.42C151.433 16.6467 151.986 16.0733 152.666 15.7C153.359 15.3133 154.093 15.12 154.866 15.12C155.453 15.12 156.019 15.2333 156.566 15.46C157.126 15.6867 157.599 16.04 157.986 16.52V10.6H160.206V25H157.986V23.74H157.686C157.366 24.2467 156.939 24.6267 156.406 24.88C155.886 25.12 155.319 25.24 154.706 25.24ZM155.306 23.16C156.053 23.16 156.686 22.9067 157.206 22.4C157.726 21.8933 157.986 21.1533 157.986 20.18C157.986 19.2067 157.726 18.4667 157.206 17.96C156.686 17.4533 156.053 17.2 155.306 17.2C154.559 17.2 153.919 17.4533 153.386 17.96C152.866 18.4533 152.606 19.1933 152.606 20.18C152.606 21.1667 152.866 21.9133 153.386 22.42C153.919 22.9133 154.559 23.16 155.306 23.16Z" fill="#1D1D1B"/>
</svg>
