<svg width="37" height="38" viewBox="0 0 37 38" fill="none" xmlns="http://www.w3.org/2000/svg">
<path fill-rule="evenodd" clip-rule="evenodd" d="M13.4867 1.01947C16.8547 0.0602132 20.3404 0.057421 23.6218 1.02216L24.5032 1.2813L24.4493 2.20914C24.375 3.48842 25.057 4.86201 26.2407 5.53633C27.4385 6.21861 28.8551 6.1469 29.9883 5.38187L31.2643 7.32017C29.4278 8.56004 27.0829 8.68883 25.1129 7.5667C23.4309 6.60853 22.3843 4.85589 22.1802 3.04711C19.823 2.4889 17.3551 2.48845 14.924 3.05175C14.74 4.83557 13.7717 6.60392 11.9736 7.57394C10.2974 8.52336 8.35158 8.56884 6.67895 7.7963C4.99096 9.62216 3.78513 11.801 3.06703 14.1369C4.55712 15.2177 5.54437 16.9588 5.54437 18.9819C5.54437 21.0383 4.46192 22.6762 3.06602 23.7092C3.42754 24.8843 3.90842 26.0735 4.50192 27.1253C5.08701 28.1622 5.86171 29.1587 6.68975 30.0622C8.3642 29.2929 10.3109 29.3424 11.9863 30.2968L10.8585 32.3272C9.66078 31.6449 8.24413 31.7166 7.11097 32.4816L6.32641 33.0113L5.65966 32.3361C4.52821 31.1903 3.36459 29.805 2.50465 28.2811C1.65262 26.7711 1.02534 25.069 0.610139 23.4923L0.375 22.5993L1.18022 22.1644C2.38898 21.5116 3.24401 20.3538 3.24401 18.9819C3.24401 17.5519 2.43174 16.3332 1.20711 15.7131L0.375447 15.292L0.60779 14.3803C1.44888 11.0797 3.13521 7.977 5.67714 5.51007L6.34328 4.86359L7.11097 5.38187C8.24413 6.1469 9.66078 6.21861 10.8585 5.53633L10.8713 5.52905L10.8843 5.5221C12.1125 4.86362 12.7265 3.52636 12.65 2.20914L12.5956 1.27329L13.4867 1.01947Z" fill="#1D1D1B"/>
<path fill-rule="evenodd" clip-rule="evenodd" d="M23.5982 36.8345C20.2302 37.7938 16.7445 37.7966 13.4632 36.8318L12.5818 36.5727L12.6357 35.6449C12.71 34.3656 12.028 32.992 10.8442 32.3177C9.64648 31.6354 8.22983 31.7071 7.09667 32.4721L5.82066 30.5338C7.65717 29.294 10.0021 29.1652 11.972 30.2873C13.6541 31.2455 14.7006 32.9981 14.9047 34.8069C17.262 35.3651 19.7299 35.3656 22.161 34.8023C22.345 33.0184 23.3133 31.2501 25.1114 30.2801C26.7875 29.3306 28.7334 29.2852 30.406 30.0577C32.094 28.2318 33.2998 26.0531 34.0179 23.7171C32.5278 22.6363 31.5406 20.8952 31.5406 18.8721C31.5406 16.8157 32.623 15.1778 34.0189 14.1448C33.6574 12.9697 33.1765 11.7805 32.583 10.7287C31.998 9.69184 31.2233 8.6953 30.3952 7.79178C28.7208 8.5611 26.7741 8.51158 25.0987 7.55721L26.2264 5.52683C27.4242 6.20911 28.8408 6.13741 29.974 5.37238L30.7586 4.84271L31.4253 5.51791C32.5568 6.66372 33.7204 8.04896 34.5803 9.57295C35.4323 11.0829 36.0596 12.785 36.4748 14.3617L36.71 15.2547L35.9047 15.6896C34.696 16.3424 33.841 17.5002 33.841 18.8721C33.841 20.3021 34.6532 21.5208 35.8779 22.1409L36.7095 22.562L36.4772 23.4737C35.6361 26.7743 33.9498 29.877 31.4078 32.3439L30.7417 32.9904L29.974 32.4721C28.8408 31.7071 27.4242 31.6354 26.2264 32.3177L26.2137 32.325L26.2007 32.3319C24.9725 32.9904 24.3585 34.3276 24.435 35.6449L24.4894 36.5807L23.5982 36.8345Z" fill="#1D1D1B"/>
<path fill-rule="evenodd" clip-rule="evenodd" d="M18.5498 9.92134C13.6087 9.92134 9.6031 13.9777 9.6031 18.9815C9.6031 23.9854 13.6087 28.0417 18.5498 28.0417C23.4909 28.0417 27.4965 23.9854 27.4965 18.9815C27.4965 13.9777 23.4909 9.92134 18.5498 9.92134ZM7.30273 18.9815C7.30273 12.6912 12.3382 7.5918 18.5498 7.5918C24.7614 7.5918 29.7969 12.6912 29.7969 18.9815C29.7969 25.2719 24.7614 30.3713 18.5498 30.3713C12.3382 30.3713 7.30273 25.2719 7.30273 18.9815Z" fill="#1D1D1B"/>
<path fill-rule="evenodd" clip-rule="evenodd" d="M12.0186 14.2732H25.1785V23.5903H12.0186V14.2732ZM13.3988 15.6709V22.1925H23.7983V15.6709H13.3988Z" fill="#00A88E"/>
<path fill-rule="evenodd" clip-rule="evenodd" d="M12.228 15.8544L12.9936 14.6914L18.5502 18.4428L24.1067 14.6914L24.8723 15.8544L18.5502 20.1226L12.228 15.8544Z" fill="#00A88E"/>
</svg>
