<svg width="25" height="25" viewBox="0 0 25 25" fill="none" xmlns="http://www.w3.org/2000/svg">
<path d="M23.5 3.18553C22.5424 3.86101 21.4821 4.37764 20.36 4.71553C19.7577 4.02304 18.9573 3.53222 18.067 3.30946C17.1767 3.08669 16.2395 3.14273 15.3821 3.46999C14.5247 3.79724 13.7884 4.37993 13.273 5.13925C12.7575 5.89856 12.4877 6.79787 12.5 7.71553V8.71553C10.7426 8.7611 9.00127 8.37134 7.43101 7.58098C5.86074 6.79061 4.51032 5.62417 3.5 4.18553C3.5 4.18553 -0.5 13.1855 8.5 17.1855C6.44053 18.5835 3.98716 19.2845 1.5 19.1855C10.5 24.1855 21.5 19.1855 21.5 7.68553C21.4991 7.40699 21.4723 7.12913 21.42 6.85553C22.4406 5.84903 23.1608 4.57824 23.5 3.18553Z" fill="#00A88E"/>
</svg>
