<svg width="37" height="41" viewBox="0 0 37 41" fill="none" xmlns="http://www.w3.org/2000/svg">
<path fill-rule="evenodd" clip-rule="evenodd" d="M14.1371 17.1757C14.1371 15.5788 15.4174 14.2843 16.9967 14.2843C18.5759 14.2843 19.8562 15.5788 19.8562 17.1757C19.8562 18.7726 18.5759 20.0671 16.9967 20.0671C15.4174 20.0671 14.1371 18.7726 14.1371 17.1757ZM16.9967 11.7896C14.0548 11.7896 11.6699 14.2011 11.6699 17.1757C11.6699 20.1504 14.0548 22.5618 16.9967 22.5618C19.9385 22.5618 22.3234 20.1504 22.3234 17.1757C22.3234 14.2011 19.9385 11.7896 16.9967 11.7896ZM14.6577 6.12914H19.3355V4.63232H14.6577V6.12914Z" fill="#00A88E"/>
<path fill-rule="evenodd" clip-rule="evenodd" d="M2.91106 17.175C2.91106 9.30866 9.21774 2.93171 16.9974 2.93171C24.7771 2.93171 31.0838 9.30866 31.0838 17.175C31.0838 18.6456 30.8634 20.0642 30.4541 21.3987L30.6626 21.2723L32.6941 22.5048C33.2499 20.8307 33.551 19.0384 33.551 17.175C33.551 7.93087 26.1397 0.437012 16.9974 0.437012C7.85514 0.437012 0.443848 7.93087 0.443848 17.175C0.443848 22.6624 3.05539 27.5331 7.09031 30.5856L1.9731 40.4166H25.828C25.0303 39.7678 24.2063 38.9378 23.5808 37.922H6.05969L9.17782 31.9315C11.5066 33.1958 14.1692 33.913 16.9974 33.913C18.9356 33.913 20.7959 33.5762 22.5243 32.9574V30.2802C20.8274 31.0128 18.9592 31.4183 16.9974 31.4183C9.21774 31.4183 2.91106 25.0414 2.91106 17.175ZM16.9974 9.8811C13.0134 9.8811 9.78364 13.1468 9.78364 17.1753C9.78364 21.2037 13.0134 24.4694 16.9974 24.4694C20.9815 24.4694 24.2112 21.2037 24.2112 17.1753C24.2112 13.1468 20.9815 9.8811 16.9974 9.8811ZM7.31643 17.1753C7.31643 11.769 11.6508 7.38641 16.9974 7.38641C22.3441 7.38641 26.6784 11.769 26.6784 17.1753C26.6784 22.5815 22.3441 26.9641 16.9974 26.9641C11.6508 26.9641 7.31643 22.5815 7.31643 17.1753Z" fill="#1D1D1B"/>
<path fill-rule="evenodd" clip-rule="evenodd" d="M30.6612 24.0701L36.7086 27.7389V33.7452C36.7086 36.1485 35.0888 37.7721 33.7755 38.7016C33.0948 39.1834 32.4225 39.5337 31.9247 39.763C31.6741 39.8784 31.4633 39.9652 31.3119 40.0243C31.2362 40.0538 31.175 40.0765 31.1308 40.0925C31.1087 40.1005 31.0908 40.1068 31.0775 40.1115L31.0609 40.1172L31.0552 40.1192L31.053 40.1199C31.0526 40.1201 31.0513 40.1205 30.6612 38.9372C30.2479 40.1124 30.2475 40.1123 30.2471 40.1122L30.2441 40.1111L30.2386 40.1091L30.2223 40.1031C30.2092 40.0982 30.1915 40.0916 30.1696 40.0832C30.1259 40.0664 30.0652 40.0426 29.9899 40.0116C29.8396 39.9498 29.6299 39.8593 29.3806 39.7398C28.8852 39.5023 28.2163 39.1425 27.5394 38.6557C26.2429 37.7235 24.6138 36.1006 24.6138 33.7452V27.7389L30.6612 24.0701ZM30.6612 38.9372L30.2471 40.1122L30.6482 40.2563L31.0513 40.1205L30.6612 38.9372ZM30.6728 37.5947C30.7423 37.5649 30.8191 37.5309 30.9019 37.4928C31.3067 37.3063 31.8378 37.0279 32.3606 36.6579C33.4542 35.8838 34.2413 34.9115 34.2413 33.7452V29.1514L30.6612 26.9794L27.081 29.1514V33.7452C27.081 34.8512 27.8587 35.8242 28.9692 36.6226C29.4956 37.0012 30.0302 37.2904 30.4375 37.4856C30.5227 37.5264 30.6016 37.5628 30.6728 37.5947Z" fill="#00A88E"/>
</svg>
